<svg width="24" height="24" viewBox="0 0 24 24" fill="none" xmlns="http://www.w3.org/2000/svg">
<path d="M20.4853 3.51471C18.2188 1.24823 15.2053 0 12 0C8.79474 0 5.78119 1.24823 3.51471 3.51471C1.24823 5.78119 0 8.79474 0 12C0 15.2053 1.24823 18.2188 3.51471 20.4853C5.78119 22.7518 8.79474 24 12 24C14.1943 24 16.3414 23.402 18.2091 22.2706C18.652 22.0023 18.7936 21.4259 18.5253 20.9832C18.2571 20.5402 17.6805 20.3987 17.2377 20.6669C15.663 21.6207 13.8517 22.125 12 22.125C6.73315 22.125 2.39337 18.0826 1.91876 12.9375H7.88635C8.3139 14.814 9.99591 16.2188 12 16.2188C14.0041 16.2188 15.6861 14.814 16.1136 12.9375H22.0811C21.925 14.6014 21.3547 16.2039 20.4082 17.6197C20.1204 18.05 20.2361 18.6323 20.6666 18.9201C21.0969 19.2078 21.6791 19.092 21.967 18.6617C23.2969 16.6723 24 14.3687 24 12C24 8.79474 22.7518 5.78119 20.4853 3.51471ZM12 1.875C17.2668 1.875 21.6066 5.91742 22.0812 11.0625H16.1136C15.6861 9.18604 14.0041 7.78125 12 7.78125C9.99591 7.78125 8.3139 9.18604 7.88635 11.0625H1.91876C2.39337 5.91742 6.73315 1.875 12 1.875ZM12 14.3438C10.7076 14.3438 9.65625 13.2924 9.65625 12C9.65625 10.7076 10.7076 9.65625 12 9.65625C13.2924 9.65625 14.3438 10.7076 14.3438 12C14.3438 13.2924 13.2924 14.3438 12 14.3438Z" fill="white"/>
</svg>
